# xmcd
#
# Track frame offsets:
#	183
#	11893
#	24335
#	36175
#	47683
#	59630
#	71483
#	83403
#	94448
#	117365
#	129998
#	142695
#	154613
#	166970
#	179413
#	192735
#
# Disc length: 2747 seconds
#
# Revision: 3
# Processed by: cddbd v1.5.2PL0 Copyright (c) Steve Scherf et al.
# Submitted via: audiograbber 1.83.01
#
DISCID=d60ab910
DTITLE=Platters, The - Only you
DYEAR=1900
DGENRE=Soul
TTITLE0=Only you
TTITLE1=Twilight time
TTITLE2=The great pretender
TTITLE3=Smoke gets in your eyes
TTITLE4=I love you a 1000 times
TTITLE5=How beautiful our love
TTITLE6=You'll never never know
TTITLE7=Red sails in the sunset
TTITLE8=Unchained melody
TTITLE9=Washed ashore (on a lonely island in the sea)
TTITLE10=If I had you
TTITLE11=With this ring
TTITLE12=(You've got) The magic touch
TTITLE13=My prayer
TTITLE14=Harbor lights
TTITLE15=I'm sorry
EXTD=
EXTT0=
EXTT1=
EXTT2=
EXTT3=
EXTT4=
EXTT5=
EXTT6=
EXTT7=
EXTT8=
EXTT9=
EXTT10=
EXTT11=
EXTT12=
EXTT13=
EXTT14=
EXTT15=
PLAYORDER=
